<svg xmlns="http://www.w3.org/2000/svg" viewBox="0 0 1600 900" preserveAspectRatio="xMidYMid meet"><rect width="1600" height="900" fill="#f5f0e8"/><g transform="translate(320 300) scale(4.21)" fill="#2b001e"><path
        d="M0 8.35188C0 27.1096 27.3455 44.5697 26.4228 70.5749C27.532 70.3875 28.4546 70.5749 28.4546 70.5749C28.4546 70.5749 47.3 14.1094 52.1046 0.921818C36.5817 -3.72074 22.1728 10.7694 0 8.35188Z"/>
    <path
        d="M83.6683 13.9177C83.6683 17.0555 81.6218 19.1622 77.3227 19.1622H68.8079V0.858398H77.0429C81.239 0.858398 82.9272 3.09334 82.9272 5.58976C82.9272 7.39054 82.0046 8.75222 80.4979 9.52187C82.6475 10.3211 83.6683 12.0923 83.6683 13.9177ZM72.2628 3.71004V8.49074H76.7877C78.579 8.49074 79.4967 7.53855 79.4967 6.02392C79.4967 4.66223 78.5741 3.71004 76.7877 3.71004H72.2628ZM80.1396 13.7648C80.1396 12.043 79.0158 11.219 77.146 11.219H72.2628V16.2859H77.146C79.0894 16.2859 80.1396 15.3584 80.1396 13.7648Z"/>
    <path
        d="M98.2489 13.5331H88.3747C88.6053 15.9012 89.9353 16.9521 91.8002 16.9521C93.3363 16.9521 94.3326 16.2318 94.8184 15.0477H97.9152C97.2526 17.7464 94.946 19.4682 91.7757 19.4682C87.8888 19.4682 85.2043 16.7695 85.2043 12.5266C85.2043 8.28366 87.8152 5.58496 91.7266 5.58496C95.638 5.58496 98.2489 8.54021 98.2489 12.7585V13.5281V13.5331ZM88.3992 11.2685H95.0246C94.7694 9.39373 93.6161 8.10605 91.6972 8.10605C89.9844 8.10605 88.7035 9.08291 88.3992 11.2685Z"/>
    <path
        d="M108.172 5.74275V8.7276H107.353C104.972 8.7276 103.539 9.91167 103.539 12.4278V19.1672H100.315V5.89569H103.436V8.2589C104.074 6.76894 105.331 5.68848 107.377 5.68848C107.657 5.68848 107.888 5.68848 108.172 5.73781V5.74275Z"/>
    <path
        d="M121.958 5.89578V18.7282C121.958 22.2261 119.735 24.5153 115.436 24.5153C111.622 24.5153 109.581 22.6406 109.375 19.8876H112.545C112.697 21.3035 113.723 22.0189 115.485 22.0189C117.61 22.0189 118.733 20.8891 118.733 18.8071V17.1346C117.865 18.368 116.535 19.113 114.694 19.113C111.112 19.113 108.737 16.3896 108.737 12.349C108.737 8.30833 111.063 5.58496 114.67 5.58496C116.589 5.58496 117.968 6.37928 118.841 7.71629V5.89085H121.963L121.958 5.89578ZM118.812 12.349C118.812 9.69962 117.507 8.25899 115.411 8.25899C113.315 8.25899 112.035 9.80322 112.035 12.3736C112.035 14.9441 113.34 16.434 115.411 16.434C117.482 16.434 118.812 14.9687 118.812 12.344V12.349Z"/>
    <path
        d="M137.024 13.5331H127.15C127.381 15.9012 128.711 16.9521 130.576 16.9521C132.112 16.9521 133.108 16.2318 133.594 15.0477H136.691C136.028 17.7464 133.721 19.4682 130.551 19.4682C126.664 19.4682 123.98 16.7695 123.98 12.5266C123.98 8.28366 126.591 5.58496 130.502 5.58496C134.413 5.58496 137.024 8.54021 137.024 12.7585V13.5281V13.5331ZM127.175 11.2685H133.8C133.545 9.39373 132.391 8.10605 130.473 8.10605C128.76 8.10605 127.479 9.08291 127.175 11.2685Z"/>
    <path
        d="M150.962 10.3705V19.1623H147.738V10.9083C147.738 9.21114 146.894 8.38722 145.254 8.38722C143.846 8.38722 142.315 9.36408 142.315 11.7322V19.1623H139.09V5.89573H142.212V7.80011C143.056 6.54204 144.464 5.58984 146.329 5.58984C149.092 5.58984 150.957 7.20808 150.957 10.3705H150.962Z"/>
    <path
        d="M72.2629 29.6805V33.9974H80.8316V36.9823H72.2629V44.8761H68.8079V26.5674H81.6708V29.6805H72.2579H72.2629Z"/>
    <path d="M83.0303 31.6095H86.2546V44.8761H83.0303V31.6095ZM83.0548 26.8535H86.2252V29.8877H83.0548V26.8535Z"/>
    <path d="M88.8606 26.5674H92.0849V44.8761H88.8606V26.5674Z"/>
    <path
        d="M106.562 36.0844V44.8761H103.338V36.6221C103.338 34.925 102.494 34.1011 100.855 34.1011C99.4463 34.1011 97.9151 35.0779 97.9151 37.4461V44.8761H94.6908V26.5674H97.9151V33.3807C98.7838 32.172 100.138 31.2987 101.93 31.2987C104.693 31.2987 106.558 32.917 106.558 36.0794L106.562 36.0844Z"/>
    <path
        d="M117.816 44.8763C117.61 44.5161 117.507 43.8994 117.457 43.258C116.589 44.4914 115.156 45.1871 113.212 45.1871C110.4 45.1871 108.457 43.7711 108.457 41.2007C108.457 38.9904 109.787 37.4215 113.521 37.0614L115.519 36.8788C116.746 36.7259 117.384 36.3411 117.384 35.3593C117.384 34.3331 116.849 33.7114 114.979 33.7114C113.109 33.7114 112.368 34.1999 112.241 35.8181H109.07C109.247 33.0158 110.886 31.2939 115.004 31.2939C119.121 31.2939 120.505 32.8875 120.505 35.2803V42.3502C120.505 43.3024 120.682 44.3533 121.04 44.8713H117.816V44.8763ZM117.379 39.6318V38.4231C117.045 38.7339 116.559 38.8868 115.872 38.9608L114.135 39.168C112.344 39.3752 111.755 40.0166 111.755 41.0724C111.755 42.1282 112.496 42.8732 113.978 42.8732C115.691 42.8732 117.379 41.9457 117.379 39.6318Z"/>
    <path
        d="M130.806 31.4566V34.4414H129.987C127.606 34.4414 126.173 35.6255 126.173 38.1416V44.881H122.949V31.6144H126.07V33.9777C126.708 32.4877 127.965 31.4072 130.011 31.4072C130.291 31.4072 130.522 31.4072 130.806 31.4566Z"/>
    <path
        d="M152.213 36.1091V44.8762H148.989V36.6222C148.989 34.925 148.248 34.1011 146.712 34.1011C145.303 34.1011 143.974 35.0779 143.974 37.5744V44.8762H140.779V36.6222C140.779 34.925 140.013 34.1011 138.477 34.1011C137.122 34.1011 135.768 35.0779 135.768 37.5744V44.8762H132.544V31.6096H135.665V33.514C136.46 32.2263 137.687 31.3037 139.424 31.3037C141.446 31.3037 142.85 32.2559 143.517 33.7705C144.386 32.3546 145.77 31.3037 147.61 31.3037C150.55 31.3037 152.213 33.1785 152.213 36.114V36.1091Z"/>
    <path
        d="M154.235 38.2453C154.235 34.0271 156.945 31.3037 160.964 31.3037C164.983 31.3037 167.668 34.0271 167.668 38.2453C167.668 42.4636 164.983 45.187 160.964 45.187C156.945 45.187 154.235 42.4636 154.235 38.2453ZM164.389 38.2453C164.389 35.443 163.035 33.9777 160.964 33.9777C158.893 33.9777 157.538 35.443 157.538 38.2453C157.538 41.0476 158.868 42.5129 160.964 42.5129C163.059 42.5129 164.389 41.0476 164.389 38.2453Z"/>
    <path
        d="M181.552 36.0844V44.8762H178.327V36.6222C178.327 34.925 177.483 34.1011 175.844 34.1011C174.435 34.1011 172.904 35.0779 172.904 37.4461V44.8762H169.68V31.6096H172.801V33.514C173.645 32.2559 175.054 31.3037 176.919 31.3037C179.682 31.3037 181.547 32.9219 181.547 36.0844H181.552Z"/>
    <path d="M184.157 31.6095H187.382V44.8761H184.157V31.6095ZM184.187 26.8535H187.357V29.8877H184.187V26.8535Z"/>
    <path
        d="M189.149 40.6579H192.294C192.476 42.3304 193.315 42.9224 195.234 42.9224C197.153 42.9224 197.845 42.3304 197.845 41.3289C197.845 40.3767 197.256 39.9129 195.263 39.5824L193.757 39.3258C190.915 38.8374 189.433 37.5793 189.433 35.3148C189.433 32.8183 191.377 31.3037 194.905 31.3037C198.974 31.3037 200.632 33.0798 200.736 35.8032H197.693C197.614 34.106 196.569 33.6176 194.905 33.6176C193.345 33.6176 192.604 34.2096 192.604 35.1618C192.604 36.114 193.369 36.5235 194.802 36.7801L196.466 37.0366C199.636 37.604 201.045 38.7831 201.045 41.0723C201.045 43.7463 198.871 45.2363 195.19 45.2363C191.509 45.2363 189.36 43.8746 189.153 40.6579H189.149Z"
    />
    <path
        d="M207.92 38.7042L205.923 40.7072V44.8712H202.753V26.5625H205.923V37.1057L211.292 31.6047H215.13L210.143 36.6173L215.439 44.8712H211.758L207.92 38.6993V38.7042Z"/>
    <path
        d="M228.277 39.2469H218.403C218.634 41.6151 219.964 42.6659 221.829 42.6659C223.365 42.6659 224.361 41.9456 224.847 40.7615H227.944C227.281 43.4602 224.974 45.1821 221.804 45.1821C217.917 45.1821 215.233 42.4834 215.233 38.2405C215.233 33.9975 217.844 31.2988 221.755 31.2988C225.666 31.2988 228.277 34.2541 228.277 38.4723V39.242V39.2469ZM218.433 36.9824H225.058C224.803 35.1076 223.649 33.8199 221.731 33.8199C220.018 33.8199 218.737 34.7968 218.433 36.9824Z"/>
    <path
        d="M68.8079 61.4335C68.8079 55.676 72.4395 51.8672 77.9116 51.8672C83.3836 51.8672 86.9907 55.671 86.9907 61.4335C86.9907 67.196 83.3591 70.9998 77.9116 70.9998C72.4641 70.9998 68.8079 67.196 68.8079 61.4335ZM83.4131 61.4335C83.4131 57.3978 81.239 54.926 77.9116 54.926C74.5842 54.926 72.4101 57.3929 72.4101 61.4335C72.4101 65.4742 74.5842 67.936 77.9116 67.936C81.239 67.936 83.4131 65.4692 83.4131 61.4335Z"/>
    <path
        d="M96.8944 57.1656V60.1504H96.0748C93.6946 60.1504 92.2616 61.3345 92.2616 63.8506V70.59H89.0372V57.3234H92.1585V59.6866C92.7965 58.1967 94.0529 57.1162 96.0994 57.1162C96.3791 57.1162 96.6097 57.1162 96.8944 57.1656Z"/>
    <path
        d="M103.799 64.4181L101.807 66.4211V70.5851H98.6366V52.2764H101.807V62.8196L107.176 57.3185H111.014L106.028 62.3311L111.323 70.5851H107.642L103.804 64.4131L103.799 64.4181Z"/>
    <path
        d="M124.156 64.9559H114.282C114.513 67.3241 115.843 68.3749 117.708 68.3749C119.244 68.3749 120.24 67.6546 120.726 66.4705H123.823C123.16 69.1692 120.854 70.8911 117.683 70.8911C113.796 70.8911 111.112 68.1924 111.112 63.9494C111.112 59.7065 113.723 57.0078 117.634 57.0078C121.546 57.0078 124.156 59.9631 124.156 64.1813V64.951V64.9559ZM114.312 62.6963H120.937C120.682 60.8215 119.528 59.5338 117.61 59.5338C115.897 59.5338 114.616 60.5107 114.312 62.6963Z"/>
    <path
        d="M125.359 66.3718H128.505C128.686 68.0443 129.525 68.6363 131.444 68.6363C133.363 68.6363 134.055 68.0443 134.055 67.0427C134.055 66.0905 133.466 65.6268 131.474 65.2962L129.967 65.0397C127.126 64.5512 125.643 63.2932 125.643 61.0286C125.643 58.5322 127.587 57.0176 131.115 57.0176C135.184 57.0176 136.843 58.7937 136.946 61.5171H133.903C133.824 59.8199 132.779 59.3315 131.115 59.3315C129.555 59.3315 128.814 59.9235 128.814 60.8757C128.814 61.8279 129.579 62.2374 131.012 62.4939L132.676 62.7505C135.846 63.3178 137.255 64.497 137.255 66.7862C137.255 69.4602 135.081 70.9502 131.4 70.9502C127.719 70.9502 125.57 69.5885 125.364 66.3718H125.359Z"/>
    <path
        d="M143.031 59.7907V66.9642C143.031 67.8375 143.468 68.1237 144.543 68.1237H145.642V70.5905C145.053 70.6398 144.464 70.6941 143.954 70.6941C141.166 70.6941 139.836 69.7419 139.836 67.2997V59.7907H137.79V57.3239H139.836V53.4658H143.031V57.3239H145.642V59.7907H143.031Z"/>
    <path
        d="M159.737 64.9559H149.863C150.093 67.3241 151.423 68.3749 153.288 68.3749C154.824 68.3749 155.821 67.6546 156.306 66.4705H159.403C158.741 69.1692 156.434 70.8911 153.264 70.8911C149.377 70.8911 146.692 68.1924 146.692 63.9494C146.692 59.7065 149.303 57.0078 153.215 57.0078C157.126 57.0078 159.737 59.9631 159.737 64.1813V64.951V64.9559ZM149.887 62.6963H156.513C156.257 60.8215 155.104 59.5338 153.185 59.5338C151.472 59.5338 150.192 60.5107 149.887 62.6963Z"/>
    <path
        d="M169.66 57.1656V60.1504H168.841C166.46 60.1504 165.027 61.3345 165.027 63.8506V70.59H161.803V57.3234H164.924V59.6866C165.562 58.1967 166.819 57.1162 168.865 57.1162C169.145 57.1162 169.376 57.1162 169.66 57.1656Z"/></g></svg>